<svg width="865" height="787" viewBox="0 0 865 787" fill="none" xmlns="http://www.w3.org/2000/svg">
<path d="M813.5 1C802.902 56.6169 638.067 209.954 454 143C269.933 76.0459 75.597 181.655 -1 143" stroke="white" stroke-opacity="0.3"/>
<path d="M0 289.686C0 289.686 116.015 394.801 339 281.686C490.769 204.698 647.351 421.613 811.5 377.186" stroke="white" stroke-opacity="0.3"/>
<path d="M0 492C168.986 336.609 337.275 532.8 501.109 316.246C664.944 99.6923 864 316.246 864 316.246" stroke="white" stroke-opacity="0.3"/>
<path d="M-1.5 697C-1.5 697 41.4996 787.664 261.5 609C481.5 430.336 741 712 809.5 546.5" stroke="white" stroke-opacity="0.3"/>
<path d="M-2 423.851C164.173 388.065 200.787 699.399 572 786" stroke="white" stroke-opacity="0.3"/>
</svg>
